<svg width="411" height="153" viewBox="0 0 411 153" fill="none" xmlns="http://www.w3.org/2000/svg">
<path d="M32.2917 42.9585L37.9792 38.6876C40.8959 36.5626 41.6875 35.396 41.6875 33.3335C41.6875 31.2085 40.1042 29.6251 37.9792 29.6251C36.625 29.6251 35.6042 30.1043 33.3334 31.771L24.6459 38.146L34.5 13.9585L34.8959 12.9168C35.2917 12.0626 35.5209 11.1043 35.5209 10.3335C35.5209 8.27096 33.7917 6.62512 31.5834 6.62512C29.1459 6.62512 27.1667 8.12512 25.9167 10.9585L25.5209 11.9793L9.04171 52.5626L8.64587 53.6668C8.27087 54.5418 8.02087 55.4793 8.02087 56.271C8.02087 58.3126 9.75004 59.896 11.9584 59.896C14.8125 59.896 16.4584 58.4793 18.0417 54.6251L22.375 43.896L31.2709 57.2918L31.75 58.0001C32.4584 59.1043 33.3959 59.6668 34.5834 59.6668C37.0209 59.6668 39.3959 57.4585 39.3959 55.1668C39.3959 54.2293 39.1459 53.6668 38.2084 52.2501L32.2917 42.9585Z" fill="white"/>
<path d="M51.9277 47.9168H59.6568C62.886 47.9168 63.9902 47.7501 65.7193 46.9793C68.8652 45.6251 70.8443 42.4793 70.8443 38.8543C70.8443 33.1043 66.4277 29.2293 59.8027 29.2293C50.511 29.2293 42.6985 37.4376 42.6985 47.2918C42.6985 51.6251 44.2818 55.021 47.1985 57.2085C49.2402 58.7085 51.3027 59.1876 55.1568 59.1876H66.9693C70.0527 59.1876 72.5735 56.9793 72.5735 54.2293C72.5735 52.021 71.1568 50.8335 68.636 50.7501H56.261C53.4277 50.7501 51.9277 49.8126 51.9277 47.9168ZM53.7402 40.896C55.0735 38.3751 57.0527 37.0418 59.4068 37.0418C60.9068 37.0418 62.011 37.9793 62.011 39.1668C62.011 40.3543 60.8235 40.896 57.9902 40.896H53.7402Z" fill="white"/>
<path d="M98.1866 60.771L107.812 37.2085L108.187 36.1043C108.582 35.2293 108.749 34.2918 108.749 33.5001C108.749 31.3751 107.082 29.7918 104.812 29.7918C102.291 29.7918 100.312 31.2918 99.1241 34.1251L98.7282 35.146L93.6241 47.7501C92.9157 49.5001 89.9991 51.146 87.7074 51.146C86.1241 51.146 85.2699 50.521 85.2699 49.4168C85.2699 48.7918 85.4157 48.2293 86.1241 46.4168L89.9157 37.2085C90.7074 35.2293 90.9366 34.4376 90.9366 33.4168C90.9366 31.3751 89.2074 29.7918 86.9157 29.7918C84.0824 29.7918 82.4157 31.2918 80.7699 35.146L76.5824 45.5626C75.4157 48.4793 74.9366 50.2085 74.9366 51.7085C74.9366 56.1876 78.7282 59.3543 84.0824 59.3543C85.9782 59.3543 87.3116 59.021 89.4366 58.0001L88.3324 60.771H82.0199C77.2907 60.771 73.6657 61.2293 71.1449 62.1876C65.7074 64.146 62.0824 69.1876 62.0824 74.7085C62.0824 81.9585 68.1657 87.5626 75.9574 87.5626C80.2074 87.5626 84.3116 85.896 87.3949 82.8335C89.2074 81.1043 90.7699 78.3335 93.2907 72.8126C94.1657 71.0001 94.2491 70.6876 94.7907 69.1876H101.978C105.041 69.1876 107.562 66.9168 107.562 64.2293C107.562 62.021 106.145 60.8335 103.624 60.771H98.1866ZM85.5824 69.1876C84.1657 72.1043 83.3741 73.6876 82.2699 75.1043C80.3741 77.7918 78.2491 79.0418 75.8116 79.0418C73.2074 79.0418 71.3949 77.3126 71.3949 74.7918C71.3949 71.0835 74.3949 69.1876 80.2074 69.1876H85.5824Z" fill="white"/>
<path d="M139.959 44.8335L140.979 35.2293C141.063 34.8335 141.063 34.4376 141.063 34.0418C141.063 31.0418 139.25 29.2293 136.167 29.2293C133.896 29.2293 131.521 30.6668 129.792 33.1876L121.271 45.396L122.313 34.6668C122.375 34.1251 122.459 33.5001 122.459 33.2501C122.459 30.6668 121.125 29.2293 118.834 29.2293C115.917 29.2293 113.709 31.4376 113.396 34.6668L113.313 35.7085L112.292 51.8543C111.896 56.4376 114.417 59.8126 118.125 59.8126C120.167 59.8126 121.834 58.7085 123.563 56.1876L131.438 44.8335L130.188 51.8543C130.104 52.2501 130.021 52.7293 130.021 53.1876C130.021 56.9793 132.709 59.8126 136.25 59.8126C137.917 59.8126 140.125 58.3126 141.854 56.1876L156.271 37.9793L157.063 37.0418C158.084 35.771 158.709 34.3543 158.709 33.2501C158.709 30.9793 156.979 29.3126 154.625 29.3126C152.479 29.3126 151.229 30.1876 148.938 33.1043L139.959 44.8335Z" fill="white"/>
<path d="M171.094 59.1876C175.886 59.1876 178.178 58.7918 180.469 57.2918C185.115 54.2918 188.428 47.8335 188.428 41.771C188.428 34.4376 183.073 29.2293 175.428 29.2293C166.053 29.2293 157.844 37.5835 157.844 47.1251C157.844 51.4585 159.823 55.4793 163.053 57.6876C164.782 58.8751 166.511 59.1876 171.094 59.1876ZM179.282 42.1668C179.282 45.0001 177.698 48.396 175.74 49.896C174.803 50.6668 173.928 50.8335 172.032 50.8335C168.719 50.8335 167.157 49.5001 167.157 46.5001C167.157 41.8543 170.844 37.4376 174.803 37.4376C177.386 37.4376 179.282 39.396 179.282 42.1668Z" fill="white"/>
<path d="M200.16 38.2293H204.181C199.848 43.021 198.285 46.021 198.285 49.646C198.285 54.0626 200.639 57.6876 204.119 58.646C205.369 58.9585 206.473 59.1876 207.035 59.1876H215.535C218.619 59.1876 221.056 56.9793 221.056 54.2293C221.056 52.021 219.639 50.8335 217.119 50.7501H211.369C209.077 50.7501 207.806 49.5626 207.806 47.521C207.806 46.4168 208.285 45.3126 209.702 43.271C210.889 41.5418 211.514 40.8335 213.889 38.5418L214.348 38.2293C216.556 38.146 217.264 38.0626 217.973 37.6668C219.41 37.0418 220.744 35.0001 220.744 33.3335C220.744 31.0418 219.244 29.7918 216.639 29.7918H206.639C204.264 29.7918 204.035 29.6251 203.723 28.3751L203.41 27.1876C203.014 25.4585 201.744 24.5001 199.848 24.5001C197.806 24.5001 196.619 25.5418 195.452 28.3751L191.098 39.0835C190.389 40.896 190.244 41.3751 190.244 42.1668C190.244 44.1251 192.056 45.7085 194.181 45.7085C196.306 45.7085 197.639 44.521 198.91 41.3751L200.16 38.2293Z" fill="white"/>
<path d="M249.261 50.7501L264.407 13.4793L264.802 12.4585C265.198 11.5835 265.427 10.5626 265.427 9.77096C265.427 7.72929 263.698 6.06262 261.49 6.06262C258.969 6.06262 256.99 7.64596 255.74 10.4793L255.344 11.5001L246.74 32.5418C244.865 30.271 242.573 29.2293 239.344 29.2293C230.823 29.2293 222.865 38.5418 222.865 48.5418C222.865 54.6251 226.74 59.1876 231.782 59.1876H237.927C239.261 59.1876 240.844 58.3126 242.407 56.7501C243.448 58.396 244.782 59.1876 246.823 59.1876H252.969C256.052 59.1876 258.49 56.9793 258.49 54.2293C258.49 52.021 257.157 50.8335 254.552 50.7501H249.261ZM240.136 48.8543C239.74 49.896 238.011 51.0001 236.907 51.0001H235.157C233.032 51.0001 231.927 49.8126 231.927 47.521C231.927 42.396 236.198 36.9585 240.136 36.9585C242.011 36.9585 243.594 38.2293 243.594 39.7293C243.594 40.1876 243.511 40.6668 243.282 41.146L243.052 41.771L240.136 48.8543Z" fill="white"/>
<path d="M273.539 40.271L275.289 43.5835C275.998 45.0835 276.227 45.7918 276.227 46.8126C276.227 49.5001 274.498 50.7501 270.873 50.7501H265.498C262.435 50.7501 259.914 53.0418 259.914 55.7293C259.914 57.9168 261.331 59.1043 263.852 59.1876H273.393C273.789 59.1876 274.56 59.1043 275.748 58.7918C278.039 58.3126 278.977 58.0001 279.998 57.3751C283.31 55.2501 285.456 51.4585 285.456 47.6043C285.456 44.8335 284.352 42.0001 282.143 38.8543L279.935 35.771C278.664 34.0418 278.123 32.5418 278.123 30.896C278.123 30.4168 278.185 29.8751 278.268 29.3126C278.435 28.6043 278.518 28.0626 278.518 27.7501C278.518 26.0001 276.768 24.5835 274.81 24.5835C272.831 24.5835 271.414 25.6876 270.164 28.2085L265.039 38.6251C264.331 40.0418 263.935 41.3751 263.935 42.2501C263.935 44.0626 265.893 45.7918 268.018 45.7918C270.081 45.7918 271.727 44.4585 272.748 42.0001L273.539 40.271Z" fill="white"/>
<path d="M281.561 70.8475H291.645C292.832 70.8475 294.957 70.7642 296.374 70.6183C300.707 70.3058 303.707 69.6808 305.832 68.7225C311.103 66.285 314.353 61.5558 314.353 56.2017C314.353 49.0142 308.832 43.7433 301.186 43.7433C295.436 43.7433 289.999 46.035 285.103 50.5142C281.249 53.9933 278.082 57.7642 275.728 61.6392H269.103C265.79 61.6392 263.04 64.0767 263.04 67.0767C263.04 69.4308 264.603 70.7642 267.374 70.8475H270.52C267.207 78.41 265.874 83.7017 265.874 89.3683C265.874 100.014 273.207 107.66 283.374 107.66L284.707 107.577H308.124C311.499 107.577 314.186 105.222 314.186 102.139C314.186 99.785 312.686 98.4308 309.853 98.3683H287.478C279.582 98.3683 276.436 95.4517 276.436 88.1183C276.436 82.5975 278.02 77.16 281.561 70.8475ZM287.311 61.6392C288.811 59.5142 290.145 58.0142 292.52 56.035C295.186 53.8267 297.478 52.8058 299.915 52.8058C302.436 52.8058 304.332 54.3892 304.332 56.4308C304.332 58.3267 303.082 59.9725 300.936 60.8475C299.853 61.3267 297.249 61.6392 294.79 61.6392H287.311Z" fill="white"/>
<path d="M319.001 88.66L333.897 51.8683L334.355 50.8266C334.668 49.9725 334.918 48.9516 334.918 48.16C334.918 46.1808 333.189 44.535 331.043 44.535C328.522 44.535 326.564 46.035 325.376 48.8683L324.98 49.8891L309.459 88.1183C308.751 89.7641 308.272 91.3475 308.272 92.3683C308.272 95.2016 310.793 97.0975 314.501 97.0975H322.314C325.376 97.0975 327.897 94.8891 327.897 92.1391C327.897 89.9308 326.48 88.7433 323.959 88.66H319.001Z" fill="white"/>
<path d="M357.533 88.66L363.054 75.035C363.908 72.9725 364.075 72.3475 364.075 71.3267C364.075 69.285 362.346 67.7017 360.137 67.7017C357.304 67.7017 355.637 69.1183 354.075 73.0558L349.179 85.1183C348.637 86.4517 347.2 87.8058 345.637 88.4308C345.158 88.66 344.367 88.7433 342.867 88.7433C341.617 88.7433 340.658 88.035 340.658 87.0142C340.658 86.7642 340.825 86.2225 341.054 85.5142L341.45 84.3267L345.554 74.4725L345.95 73.4517C346.346 72.5142 346.575 71.5558 346.575 70.7642C346.575 68.7225 344.846 67.1392 342.637 67.1392C339.887 67.1392 338.221 68.6392 336.658 72.5142L331.367 85.3475C330.742 87.0142 330.346 88.3475 330.346 89.6808C330.346 91.9725 331.762 94.66 333.575 95.8267C334.512 96.3892 336.721 97.0975 337.679 97.0975H343.971C345.95 97.0975 347.762 96.2225 349.179 94.5767C349.721 95.9933 351.387 97.0975 352.971 97.0975H361.325C364.387 97.0975 366.825 94.8892 366.825 92.1392C366.825 89.9308 365.492 88.7433 362.887 88.66H357.533Z" fill="white"/>
<path d="M389.302 67.7016L395.677 51.9308C396.469 50.0558 396.615 49.2641 396.615 48.16C396.615 46.0975 394.969 44.535 392.761 44.535C390.24 44.535 388.261 46.0975 387.094 48.8683L386.615 49.9725L370.469 89.6808L370.073 90.7225C369.677 91.7433 369.427 92.6808 369.427 93.4725C369.427 95.5141 371.24 97.0975 373.531 97.0975C375.656 97.0975 377.552 96.0766 378.427 94.3475C380.636 96.3891 382.365 97.0975 385.281 97.0975H388.656C390.865 97.0975 392.99 96.3058 394.969 94.7433C399.865 90.8683 402.386 85.5141 402.386 79.2016C402.386 71.9516 398.281 67.1391 392.281 67.1391C391.261 67.1391 390.636 67.2225 389.302 67.7016ZM381.656 86.535L384.177 80.16C385.511 76.8475 387.802 74.785 390.073 74.785C392.219 74.785 393.719 76.285 393.719 78.5766C393.719 81.4933 391.969 85.2016 389.615 87.6391C388.594 88.5766 387.886 88.91 386.302 88.91C383.927 88.91 383.156 88.5141 381.656 86.535Z" fill="white"/>
<path d="M48.8099 133.094L53.7474 120.969L54.0599 120.219C54.1849 119.865 54.2682 119.511 54.2682 119.177C54.2682 118.282 53.3724 117.511 52.3099 117.511C51.4974 117.511 50.7474 117.907 49.7891 118.844L45.6849 122.865L44.8516 119.74C44.4141 118.073 43.8932 117.511 42.8724 117.511C42.0182 117.511 41.4766 117.99 40.9557 119.261L35.5182 132.636C35.1849 133.49 34.7891 134.344 34.4349 135.115C33.7891 136.365 33.3099 137.115 32.8307 137.657C31.9349 138.615 31.0599 139.052 30.0391 139.052C28.1849 139.052 27.0391 137.823 27.0391 135.886C27.0391 132.511 29.9557 129.761 33.7266 129.532C35.9141 129.427 36.6849 128.907 36.6849 127.677C36.6849 126.594 35.7474 125.969 34.1224 125.969C28.2057 125.969 23.1641 130.677 23.1641 136.198C23.1641 140.052 25.8099 142.657 29.7266 142.657C33.3932 142.657 36.0599 140.448 38.0599 135.719C38.3516 135.073 38.8724 133.761 39.3516 132.636L42.6849 124.407L43.0599 126.094C43.3099 127.115 43.7474 127.636 44.4766 127.636C45.0599 127.636 45.6849 127.261 46.2891 126.594L48.9349 123.761L45.4349 131.99C44.9557 133.115 44.8516 133.448 44.8516 134.094C44.8516 134.886 45.3099 135.657 46.0182 136.032C46.4974 136.282 46.9974 136.365 47.8099 136.365H50.7682C51.9557 136.365 52.9349 135.49 52.9349 134.427C52.9349 133.594 52.3932 133.115 51.3932 133.094H48.8099Z" fill="white"/>
<path d="M59.1447 136.365C60.8531 136.365 61.6656 136.219 62.4781 135.698C64.1239 134.636 65.3114 132.323 65.3114 130.177C65.3114 127.573 63.4156 125.719 60.6864 125.719C57.3531 125.719 54.4364 128.698 54.4364 132.073C54.4364 133.615 55.1447 135.052 56.2906 135.823C56.9156 136.261 57.5197 136.365 59.1447 136.365ZM62.0614 130.323C62.0614 131.323 61.4989 132.531 60.8114 133.052C60.4572 133.344 60.1656 133.406 59.4781 133.406C58.3114 133.406 57.7489 132.927 57.7489 131.865C57.7489 130.198 59.0614 128.636 60.4572 128.636C61.3947 128.636 62.0614 129.344 62.0614 130.323Z" fill="white"/>
<path d="M70.7992 129.636L71.4242 130.823C71.6742 131.344 71.7576 131.615 71.7576 131.969C71.7576 132.927 71.1326 133.365 69.8409 133.365H67.9451C66.8409 133.365 65.9451 134.177 65.9451 135.136C65.9451 135.907 66.4659 136.344 67.3617 136.365H70.7367C70.8826 136.365 71.1534 136.344 71.5909 136.219C72.4034 136.052 72.7367 135.948 73.0909 135.719C74.2784 134.969 75.0284 133.615 75.0284 132.24C75.0284 131.261 74.6326 130.261 73.8409 129.136L73.0701 128.052C72.6117 127.427 72.4242 126.907 72.4242 126.323C72.4242 126.136 72.4451 125.948 72.4867 125.761C72.5284 125.511 72.5701 125.302 72.5701 125.198C72.5701 124.573 71.9451 124.073 71.2367 124.073C70.5492 124.073 70.0492 124.469 69.5909 125.365L67.7784 129.052C67.5284 129.552 67.3826 130.032 67.3826 130.344C67.3826 130.99 68.0909 131.615 68.8409 131.615C69.5701 131.615 70.1534 131.136 70.5284 130.261L70.7992 129.636Z" fill="white"/>
<path d="M82.8858 125.927L83.4067 124.823C83.615 124.344 83.74 123.844 83.74 123.511C83.74 122.781 83.1567 122.219 82.365 122.219C81.49 122.219 80.8025 122.761 80.365 123.761L80.1983 124.136L79.4692 125.927H78.5317C77.4275 125.927 76.5317 126.698 76.5317 127.677C76.5317 128.531 77.0942 128.906 78.2817 128.906L76.6775 132.865L76.4275 133.448C76.2608 133.844 76.1775 134.24 76.1775 134.573C76.1775 135.656 77.0525 136.365 78.4067 136.365H81.1775C82.2817 136.365 83.1775 135.573 83.1775 134.594C83.1775 133.823 82.6775 133.406 81.7817 133.365H79.9275L81.74 128.906H83.0525C84.1567 128.906 85.0525 128.115 85.0525 127.115C85.0525 126.365 84.5525 125.927 83.6567 125.927H82.8858Z" fill="white"/>
<path d="M96.6339 125.927L97.1547 124.823C97.363 124.344 97.488 123.844 97.488 123.511C97.488 122.781 96.9047 122.219 96.113 122.219C95.238 122.219 94.5505 122.761 94.113 123.761L93.9464 124.136L93.2172 125.927H92.2797C91.1755 125.927 90.2797 126.698 90.2797 127.677C90.2797 128.531 90.8422 128.906 92.0297 128.906L90.4255 132.865L90.1755 133.448C90.0089 133.844 89.9255 134.24 89.9255 134.573C89.9255 135.656 90.8005 136.365 92.1547 136.365H94.9255C96.0297 136.365 96.9255 135.573 96.9255 134.594C96.9255 133.823 96.4255 133.406 95.5297 133.365H93.6755L95.488 128.906H96.8005C97.9047 128.906 98.8005 128.115 98.8005 127.115C98.8005 126.365 98.3005 125.927 97.4047 125.927H96.6339Z" fill="white"/>
<path d="M101.771 128.907H103.188C101.646 130.615 101.104 131.698 101.104 132.969C101.104 134.552 101.938 135.823 103.167 136.177C103.604 136.282 104 136.365 104.208 136.365H107.229C108.313 136.365 109.188 135.573 109.188 134.594C109.188 133.823 108.688 133.407 107.792 133.365H105.75C104.938 133.365 104.479 132.948 104.479 132.219C104.479 131.823 104.646 131.427 105.146 130.719C105.583 130.094 105.792 129.844 106.646 129.032L106.813 128.907C107.583 128.886 107.833 128.865 108.104 128.719C108.604 128.49 109.083 127.761 109.083 127.177C109.083 126.365 108.542 125.927 107.625 125.927H104.063C103.229 125.927 103.146 125.865 103.021 125.407L102.917 124.99C102.771 124.386 102.333 124.052 101.646 124.052C100.917 124.052 100.5 124.407 100.083 125.407L98.5417 129.219C98.2917 129.865 98.2292 130.032 98.2292 130.323C98.2292 131.011 98.8751 131.573 99.6459 131.573C100.396 131.573 100.875 131.157 101.313 130.032L101.771 128.907Z" fill="white"/>
<path d="M113.112 132.365H115.841C117.008 132.365 117.383 132.302 118.008 132.031C119.133 131.552 119.821 130.427 119.821 129.136C119.821 127.094 118.258 125.719 115.904 125.719C112.612 125.719 109.821 128.636 109.821 132.136C109.821 133.677 110.383 134.886 111.425 135.656C112.154 136.198 112.883 136.365 114.258 136.365H118.446C119.55 136.365 120.446 135.573 120.446 134.594C120.446 133.823 119.946 133.406 119.05 133.365H114.654C113.633 133.365 113.112 133.031 113.112 132.365ZM113.758 129.865C114.216 128.969 114.925 128.49 115.758 128.49C116.3 128.49 116.696 128.823 116.696 129.261C116.696 129.677 116.279 129.865 115.258 129.865H113.758Z" fill="white"/>
<path d="M131.389 133.365L132.909 129.698C133.097 129.219 133.18 128.719 133.18 128.323C133.18 126.823 131.951 125.719 130.222 125.719C129.243 125.719 128.555 125.969 127.451 126.844C127.139 126.198 126.68 125.886 125.951 125.886C125.118 125.886 124.472 126.344 124.139 127.24L121.368 134.031L121.222 134.406C121.097 134.719 120.993 135.073 120.993 135.365C120.993 136.094 121.618 136.636 122.409 136.636C123.305 136.636 123.993 136.115 124.409 135.115L124.597 134.74L126.18 130.802C126.347 130.365 126.597 129.948 126.909 129.552C127.389 128.948 127.868 128.656 128.451 128.656C129.014 128.656 129.43 129.011 129.43 129.448C129.43 129.636 129.368 129.865 129.243 130.198L128.034 133.177C127.722 133.948 127.639 134.219 127.639 134.636C127.639 135.615 128.514 136.365 129.618 136.365H132.784C133.889 136.365 134.784 135.573 134.784 134.594C134.784 133.823 134.284 133.406 133.389 133.365H131.389Z" fill="white"/>
<path d="M144.725 133.365L150.1 120.115L150.225 119.761C150.37 119.448 150.454 119.094 150.454 118.802C150.454 118.073 149.85 117.49 149.058 117.49C148.162 117.49 147.454 118.052 147.016 119.052L146.87 119.427L143.829 126.907C143.141 126.094 142.329 125.719 141.183 125.719C138.162 125.719 135.329 129.032 135.329 132.594C135.329 134.74 136.704 136.365 138.495 136.365H140.683C141.162 136.365 141.725 136.052 142.287 135.49C142.641 136.094 143.12 136.365 143.85 136.365H146.037C147.12 136.365 147.995 135.573 147.995 134.594C147.995 133.823 147.516 133.407 146.6 133.365H144.725ZM141.475 132.698C141.329 133.052 140.725 133.448 140.329 133.448H139.704C138.954 133.448 138.558 133.032 138.558 132.219C138.558 130.407 140.079 128.469 141.475 128.469C142.141 128.469 142.704 128.907 142.704 129.448C142.704 129.615 142.683 129.782 142.6 129.948L142.516 130.177L141.475 132.698Z" fill="white"/>
<path d="M152.385 133.365L154.344 128.552L154.489 128.156C154.635 127.844 154.719 127.511 154.719 127.24C154.719 126.49 154.094 125.927 153.323 125.927C152.427 125.927 151.698 126.448 151.26 127.469L151.135 127.823L148.864 133.365C148.635 133.948 148.573 134.156 148.573 134.511C148.573 135.698 149.531 136.365 151.177 136.365H153.677C154.76 136.365 155.677 135.573 155.677 134.594C155.677 133.823 155.156 133.406 154.26 133.365H152.385ZM154.219 125.323C155.281 125.323 156.114 124.49 156.114 123.448C156.114 122.365 155.281 121.531 154.177 121.531C153.156 121.531 152.302 122.386 152.302 123.427C152.302 124.469 153.177 125.323 154.219 125.323Z" fill="white"/>
<path d="M166.585 133.365L168.105 129.698C168.293 129.219 168.376 128.719 168.376 128.323C168.376 126.823 167.147 125.719 165.418 125.719C164.439 125.719 163.751 125.969 162.647 126.844C162.335 126.198 161.876 125.886 161.147 125.886C160.314 125.886 159.668 126.344 159.335 127.24L156.564 134.031L156.418 134.406C156.293 134.719 156.189 135.073 156.189 135.365C156.189 136.094 156.814 136.636 157.605 136.636C158.501 136.636 159.189 136.115 159.605 135.115L159.793 134.74L161.376 130.802C161.543 130.365 161.793 129.948 162.105 129.552C162.585 128.948 163.064 128.656 163.647 128.656C164.21 128.656 164.626 129.011 164.626 129.448C164.626 129.636 164.564 129.865 164.439 130.198L163.23 133.177C162.918 133.948 162.835 134.219 162.835 134.636C162.835 135.615 163.71 136.365 164.814 136.365H167.98C169.085 136.365 169.98 135.573 169.98 134.594C169.98 133.823 169.48 133.406 168.585 133.365H166.585Z" fill="white"/>
<path d="M178.608 136.719L182.025 128.302C182.316 127.573 182.379 127.344 182.379 126.99C182.379 126.281 181.733 125.719 180.941 125.719C180.191 125.719 179.546 126.115 179.191 126.823C178.608 126.052 177.796 125.719 176.629 125.719C173.566 125.719 170.671 129.052 170.671 132.615C170.671 134.719 172.025 136.198 173.921 136.198C174.546 136.198 174.9 136.094 175.566 135.656L175.15 136.719H172.212C170.629 136.719 169.629 136.906 168.691 137.344C166.921 138.177 165.775 139.865 165.775 141.719C165.775 144.281 167.879 146.24 170.671 146.24C173.441 146.24 175.379 144.615 176.816 141.115L177.358 139.719H179.962C181.066 139.719 181.962 138.948 181.962 137.969C181.962 137.177 181.462 136.761 180.566 136.719H178.608ZM176.816 132.636C176.629 133.052 176.004 133.365 175.358 133.365C174.462 133.365 174.004 132.886 174.004 131.948C174.004 130.24 175.462 128.406 176.837 128.406C177.504 128.406 178.066 128.865 178.066 129.365C178.066 129.531 178.004 129.677 177.9 129.948L176.816 132.636ZM173.921 139.719C173.4 140.927 173.129 141.427 172.775 141.906C172.15 142.74 171.379 143.219 170.629 143.219C169.691 143.219 168.962 142.573 168.962 141.677C168.962 140.448 169.941 139.719 171.566 139.719H173.921Z" fill="white"/>
<path d="M196.398 130.594L198.419 129.094C199.46 128.323 199.731 127.907 199.731 127.177C199.731 126.427 199.169 125.865 198.419 125.865C197.94 125.865 197.585 126.032 196.773 126.615L193.69 128.886L197.19 120.302L197.335 119.927C197.46 119.615 197.565 119.282 197.565 119.011C197.565 118.282 196.94 117.698 196.148 117.698C195.294 117.698 194.585 118.219 194.148 119.219L194.002 119.594L188.148 134.011L188.002 134.407C187.877 134.719 187.773 135.052 187.773 135.323C187.773 136.052 188.398 136.615 189.19 136.615C190.19 136.615 190.773 136.115 191.335 134.74L192.877 130.927L196.044 135.698L196.21 135.948C196.46 136.344 196.794 136.532 197.21 136.532C198.085 136.532 198.919 135.74 198.919 134.927C198.919 134.594 198.835 134.407 198.502 133.907L196.398 130.594Z" fill="white"/>
<path d="M203.385 132.365H206.114C207.281 132.365 207.656 132.302 208.281 132.031C209.406 131.552 210.093 130.427 210.093 129.136C210.093 127.094 208.531 125.719 206.176 125.719C202.885 125.719 200.093 128.636 200.093 132.136C200.093 133.677 200.656 134.886 201.697 135.656C202.426 136.198 203.156 136.365 204.531 136.365H208.718C209.822 136.365 210.718 135.573 210.718 134.594C210.718 133.823 210.218 133.406 209.322 133.365H204.926C203.906 133.365 203.385 133.031 203.385 132.365ZM204.031 129.865C204.489 128.969 205.197 128.49 206.031 128.49C206.572 128.49 206.968 128.823 206.968 129.261C206.968 129.677 206.551 129.865 205.531 129.865H204.031Z" fill="white"/>
<path d="M219.807 136.927L223.223 128.552L223.369 128.157C223.515 127.844 223.557 127.511 223.557 127.24C223.557 126.49 222.973 125.927 222.161 125.927C221.265 125.927 220.577 126.448 220.161 127.469L220.015 127.823L218.182 132.302C217.932 132.927 216.911 133.511 216.098 133.511C215.536 133.511 215.223 133.282 215.223 132.886C215.223 132.677 215.286 132.469 215.536 131.823L216.869 128.552C217.161 127.844 217.244 127.573 217.244 127.219C217.244 126.49 216.619 125.927 215.807 125.927C214.807 125.927 214.223 126.448 213.619 127.823L212.14 131.511C211.723 132.552 211.557 133.177 211.557 133.698C211.557 135.302 212.89 136.427 214.807 136.427C215.473 136.427 215.952 136.302 216.702 135.948L216.307 136.927H214.077C212.39 136.927 211.098 137.094 210.202 137.427C208.286 138.136 206.994 139.927 206.994 141.886C206.994 144.448 209.14 146.448 211.911 146.448C213.432 146.448 214.89 145.865 215.973 144.761C216.619 144.157 217.182 143.177 218.077 141.219C218.39 140.573 218.411 140.448 218.619 139.927H221.161C222.244 139.927 223.14 139.115 223.14 138.157C223.14 137.365 222.64 136.948 221.744 136.927H219.807ZM215.327 139.927C214.827 140.948 214.557 141.511 214.161 142.011C213.494 142.969 212.723 143.427 211.869 143.427C210.932 143.427 210.286 142.802 210.286 141.907C210.286 140.594 211.369 139.927 213.432 139.927H215.327Z" fill="white"/>
<path d="M234.658 131.261L235.012 127.844C235.054 127.719 235.054 127.573 235.054 127.427C235.054 126.365 234.408 125.719 233.304 125.719C232.491 125.719 231.658 126.219 231.033 127.115L228.012 131.469L228.387 127.656C228.408 127.469 228.429 127.24 228.429 127.156C228.429 126.219 227.971 125.719 227.158 125.719C226.116 125.719 225.325 126.511 225.221 127.656L225.2 128.011L224.825 133.761C224.679 135.386 225.575 136.594 226.908 136.594C227.637 136.594 228.221 136.198 228.825 135.302L231.637 131.261L231.179 133.761C231.158 133.906 231.137 134.073 231.137 134.24C231.137 135.573 232.075 136.594 233.346 136.594C233.929 136.594 234.721 136.052 235.325 135.302L240.45 128.823L240.721 128.49C241.096 128.052 241.325 127.552 241.325 127.156C241.325 126.344 240.7 125.761 239.866 125.761C239.116 125.761 238.658 126.052 237.846 127.094L234.658 131.261Z" fill="white"/>
<path d="M245.709 136.365C247.418 136.365 248.23 136.219 249.043 135.698C250.689 134.636 251.876 132.323 251.876 130.177C251.876 127.573 249.98 125.719 247.251 125.719C243.918 125.719 241.001 128.698 241.001 132.073C241.001 133.615 241.709 135.052 242.855 135.823C243.48 136.261 244.084 136.365 245.709 136.365ZM248.626 130.323C248.626 131.323 248.064 132.531 247.376 133.052C247.022 133.344 246.73 133.406 246.043 133.406C244.876 133.406 244.314 132.927 244.314 131.865C244.314 130.198 245.626 128.636 247.022 128.636C247.959 128.636 248.626 129.344 248.626 130.323Z" fill="white"/>
<path d="M256.051 128.907H257.468C255.926 130.615 255.385 131.698 255.385 132.969C255.385 134.552 256.218 135.823 257.447 136.177C257.885 136.282 258.281 136.365 258.489 136.365H261.51C262.593 136.365 263.468 135.573 263.468 134.594C263.468 133.823 262.968 133.407 262.072 133.365H260.031C259.218 133.365 258.76 132.948 258.76 132.219C258.76 131.823 258.926 131.427 259.426 130.719C259.864 130.094 260.072 129.844 260.926 129.032L261.093 128.907C261.864 128.886 262.114 128.865 262.385 128.719C262.885 128.49 263.364 127.761 263.364 127.177C263.364 126.365 262.822 125.927 261.906 125.927H258.343C257.51 125.927 257.426 125.865 257.301 125.407L257.197 124.99C257.051 124.386 256.614 124.052 255.926 124.052C255.197 124.052 254.781 124.407 254.364 125.407L252.822 129.219C252.572 129.865 252.51 130.032 252.51 130.323C252.51 131.011 253.156 131.573 253.926 131.573C254.676 131.573 255.156 131.157 255.593 130.032L256.051 128.907Z" fill="white"/>
<path d="M273.497 133.365L278.872 120.115L278.997 119.761C279.143 119.448 279.226 119.094 279.226 118.802C279.226 118.073 278.622 117.49 277.83 117.49C276.935 117.49 276.226 118.052 275.789 119.052L275.643 119.427L272.601 126.907C271.914 126.094 271.101 125.719 269.955 125.719C266.935 125.719 264.101 129.032 264.101 132.594C264.101 134.74 265.476 136.365 267.268 136.365H269.455C269.935 136.365 270.497 136.052 271.06 135.49C271.414 136.094 271.893 136.365 272.622 136.365H274.81C275.893 136.365 276.768 135.573 276.768 134.594C276.768 133.823 276.289 133.407 275.372 133.365H273.497ZM270.247 132.698C270.101 133.052 269.497 133.448 269.101 133.448H268.476C267.726 133.448 267.33 133.032 267.33 132.219C267.33 130.407 268.851 128.469 270.247 128.469C270.914 128.469 271.476 128.907 271.476 129.448C271.476 129.615 271.455 129.782 271.372 129.948L271.289 130.177L270.247 132.698Z" fill="white"/>
<path d="M287.352 129.636L287.977 130.823C288.227 131.344 288.31 131.615 288.31 131.969C288.31 132.927 287.685 133.365 286.394 133.365H284.498C283.394 133.365 282.498 134.177 282.498 135.136C282.498 135.907 283.019 136.344 283.915 136.365H287.29C287.435 136.365 287.706 136.344 288.144 136.219C288.956 136.052 289.29 135.948 289.644 135.719C290.831 134.969 291.581 133.615 291.581 132.24C291.581 131.261 291.185 130.261 290.394 129.136L289.623 128.052C289.165 127.427 288.977 126.907 288.977 126.323C288.977 126.136 288.998 125.948 289.04 125.761C289.081 125.511 289.123 125.302 289.123 125.198C289.123 124.573 288.498 124.073 287.79 124.073C287.102 124.073 286.602 124.469 286.144 125.365L284.331 129.052C284.081 129.552 283.935 130.032 283.935 130.344C283.935 130.99 284.644 131.615 285.394 131.615C286.123 131.615 286.706 131.136 287.081 130.261L287.352 129.636Z" fill="white"/>
<path d="M295.897 132.365H298.626C299.793 132.365 300.168 132.302 300.793 132.031C301.918 131.552 302.605 130.427 302.605 129.136C302.605 127.094 301.043 125.719 298.689 125.719C295.397 125.719 292.605 128.636 292.605 132.136C292.605 133.677 293.168 134.886 294.21 135.656C294.939 136.198 295.668 136.365 297.043 136.365H301.23C302.335 136.365 303.23 135.573 303.23 134.594C303.23 133.823 302.73 133.406 301.835 133.365H297.439C296.418 133.365 295.897 133.031 295.897 132.365ZM296.543 129.865C297.001 128.969 297.71 128.49 298.543 128.49C299.085 128.49 299.48 128.823 299.48 129.261C299.48 129.677 299.064 129.865 298.043 129.865H296.543Z" fill="white"/>
<path d="M313.111 133.365L315.09 128.531C315.402 127.761 315.465 127.573 315.465 127.177C315.465 126.49 314.819 125.927 314.027 125.927C313.257 125.927 312.757 126.198 312.277 126.927C311.715 126.115 310.882 125.719 309.715 125.719C306.673 125.719 303.777 128.969 303.777 132.448C303.777 134.761 305.132 136.365 307.069 136.365H308.715C309.423 136.365 309.861 136.198 310.444 135.656L310.694 135.448C310.986 136.094 311.465 136.365 312.277 136.365H314.382C315.465 136.365 316.361 135.573 316.361 134.594C316.361 133.823 315.861 133.406 314.965 133.365H313.111ZM309.923 132.698C309.777 133.031 309.111 133.448 308.694 133.448H308.152C307.465 133.448 307.007 132.948 307.007 132.073C307.007 130.406 308.548 128.469 309.923 128.469C310.59 128.469 311.152 128.906 311.152 129.448C311.152 129.615 311.132 129.781 311.048 129.948L310.965 130.177L309.923 132.698Z" fill="white"/>
<path d="M320.312 128.907H321.728C320.187 130.615 319.645 131.698 319.645 132.969C319.645 134.552 320.478 135.823 321.708 136.177C322.145 136.282 322.541 136.365 322.749 136.365H325.77C326.853 136.365 327.728 135.573 327.728 134.594C327.728 133.823 327.228 133.407 326.333 133.365H324.291C323.478 133.365 323.02 132.948 323.02 132.219C323.02 131.823 323.187 131.427 323.687 130.719C324.124 130.094 324.333 129.844 325.187 129.032L325.353 128.907C326.124 128.886 326.374 128.865 326.645 128.719C327.145 128.49 327.624 127.761 327.624 127.177C327.624 126.365 327.083 125.927 326.166 125.927H322.603C321.77 125.927 321.687 125.865 321.562 125.407L321.458 124.99C321.312 124.386 320.874 124.052 320.187 124.052C319.458 124.052 319.041 124.407 318.624 125.407L317.083 129.219C316.833 129.865 316.77 130.032 316.77 130.323C316.77 131.011 317.416 131.573 318.187 131.573C318.937 131.573 319.416 131.157 319.853 130.032L320.312 128.907Z" fill="white"/>
<path d="M336.216 136.365H336.528C337.611 136.365 338.507 135.573 338.507 134.594C338.507 133.823 338.007 133.406 337.111 133.365H334.195C333.549 133.365 332.736 133.261 332.403 133.136C331.903 132.927 331.591 132.323 331.591 131.573C331.591 130.031 332.757 128.573 333.966 128.573C334.507 128.573 334.903 128.969 334.861 129.511V130.115C334.841 130.761 335.361 131.261 336.091 131.261C337.153 131.261 337.924 130.323 337.924 129.011C337.924 127.031 336.466 125.719 334.299 125.719C331.111 125.719 328.361 128.636 328.361 132.031C328.361 134.594 329.966 136.365 332.236 136.365H336.216Z" fill="white"/>
<path d="M345.932 126.511L348.537 120.094L348.662 119.74C348.787 119.427 348.87 119.094 348.87 118.802C348.87 118.073 348.287 117.511 347.495 117.511C346.516 117.511 345.932 118.052 345.37 119.407L339.432 134.073L339.266 134.427C339.162 134.74 339.057 135.073 339.057 135.365C339.057 136.094 339.662 136.615 340.432 136.615C341.307 136.615 342.016 136.115 342.432 135.136L342.557 134.761L344.078 130.99C344.745 129.427 345.516 128.636 346.453 128.636C347.057 128.636 347.495 128.948 347.495 129.427C347.495 129.636 347.432 129.865 347.245 130.282L346.016 133.365L345.849 133.74C345.766 133.99 345.703 134.261 345.703 134.573C345.703 135.615 346.537 136.365 347.745 136.365H350.828C351.912 136.365 352.807 135.573 352.807 134.594C352.807 133.823 352.307 133.407 351.412 133.365H349.516L350.974 129.823C351.141 129.365 351.266 128.719 351.266 128.282C351.266 126.823 350.016 125.719 348.307 125.719C347.495 125.719 347.141 125.844 345.932 126.511Z" fill="white"/>
<path d="M365.407 125.927L365.928 124.823C366.136 124.344 366.261 123.844 366.261 123.511C366.261 122.781 365.678 122.219 364.886 122.219C364.011 122.219 363.324 122.761 362.886 123.761L362.719 124.136L361.99 125.927H361.053C359.949 125.927 359.053 126.698 359.053 127.677C359.053 128.531 359.615 128.906 360.803 128.906L359.199 132.865L358.949 133.448C358.782 133.844 358.699 134.24 358.699 134.573C358.699 135.656 359.574 136.365 360.928 136.365H363.699C364.803 136.365 365.699 135.573 365.699 134.594C365.699 133.823 365.199 133.406 364.303 133.365H362.449L364.261 128.906H365.574C366.678 128.906 367.574 128.115 367.574 127.115C367.574 126.365 367.074 125.927 366.178 125.927H365.407Z" fill="white"/>
<path d="M371.794 136.365C373.502 136.365 374.315 136.219 375.127 135.698C376.773 134.636 377.961 132.323 377.961 130.177C377.961 127.573 376.065 125.719 373.336 125.719C370.002 125.719 367.086 128.698 367.086 132.073C367.086 133.615 367.794 135.052 368.94 135.823C369.565 136.261 370.169 136.365 371.794 136.365ZM374.711 130.323C374.711 131.323 374.148 132.531 373.461 133.052C373.107 133.344 372.815 133.406 372.127 133.406C370.961 133.406 370.398 132.927 370.398 131.865C370.398 130.198 371.711 128.636 373.107 128.636C374.044 128.636 374.711 129.344 374.711 130.323Z" fill="white"/>
<path d="M383.386 136.365C385.094 136.365 385.907 136.219 386.719 135.698C388.365 134.636 389.553 132.323 389.553 130.177C389.553 127.573 387.657 125.719 384.928 125.719C381.594 125.719 378.678 128.698 378.678 132.073C378.678 133.615 379.386 135.052 380.532 135.823C381.157 136.261 381.761 136.365 383.386 136.365ZM386.303 130.323C386.303 131.323 385.74 132.531 385.053 133.052C384.699 133.344 384.407 133.406 383.719 133.406C382.553 133.406 381.99 132.927 381.99 131.865C381.99 130.198 383.303 128.636 384.699 128.636C385.636 128.636 386.303 129.344 386.303 130.323Z" fill="white"/>
<path d="M394.082 133.365L399.374 120.302L399.541 119.927C399.666 119.615 399.749 119.261 399.749 118.969C399.749 118.282 399.124 117.698 398.374 117.698C397.478 117.698 396.77 118.219 396.353 119.219L396.207 119.594L390.707 133.177C390.457 133.761 390.27 134.323 390.27 134.677C390.27 135.698 391.166 136.365 392.499 136.365H395.27C396.353 136.365 397.249 135.573 397.249 134.594C397.249 133.823 396.749 133.407 395.853 133.365H394.082Z" fill="white"/>
</svg>
